<svg data-v-fde0c5aa="" xmlns="http://www.w3.org/2000/svg" viewBox="0 0 300 300" class="iconAbove"><!----><defs data-v-fde0c5aa=""><!----></defs><rect data-v-fde0c5aa="" fill="transparent" x="0" y="0" width="300px" height="300px" class="logo-background-square"></rect><defs data-v-fde0c5aa=""><!----></defs><g data-v-fde0c5aa="" id="dd565f12-9acd-4e24-82ea-9903be74350f" fill="#000000" transform="matrix(5.639307397120457,0,0,5.639307397120457,34.14043598655794,172.02680110918016)"><path d="M2.63 8.69L2.41 5.41L2.19 8.69L1.75 15.47L0.88 15.47L0.22 3.66L1.09 3.66L1.31 11.97L1.97 3.66L2.84 3.66L3.50 11.97L3.72 3.66L4.59 3.66L3.94 15.47L3.06 15.47L2.63 8.69ZM7 9.69L7 4.97L7.88 4.97L7.88 15.47L7 15.47L7 10.37L6.13 10.37L6.13 15.47L5.25 15.47L5.25 4.97L6.13 4.97L6.13 9.69L7 9.69ZM10.28 4.97L11.16 15.47L10.28 15.47L10.14 13.20L9.54 13.20L9.41 15.47L8.53 15.47L9.41 4.97L10.28 4.97ZM9.58 12.49L10.10 12.49L9.84 7.16L9.58 12.49ZM11.48 4.97L14.11 4.97L14.11 5.63L13.23 5.63L13.23 15.47L12.36 15.47L12.36 5.63L11.48 5.63L11.48 4.97ZM17.06 5.95L17.06 8.69L16.19 8.69L16.19 5.95L16.19 5.95Q16.19 5.71 16.08 5.61L16.08 5.61L16.08 5.61Q15.98 5.52 15.86 5.52L15.86 5.52L15.86 5.52Q15.74 5.52 15.63 5.61L15.63 5.61L15.63 5.61Q15.53 5.71 15.53 5.95L15.53 5.95L15.53 5.95Q15.53 6.69 15.60 7.30L15.60 7.30L15.60 7.30Q15.67 7.92 15.78 8.44L15.78 8.44L15.78 8.44Q15.89 8.96 16.02 9.38L16.02 9.38L16.02 9.38Q16.16 9.81 16.30 10.17L16.30 10.17L16.30 10.17Q16.41 10.45 16.54 10.81L16.54 10.81L16.54 10.81Q16.67 11.18 16.79 11.70L16.79 11.70L16.79 11.70Q16.91 12.21 16.98 12.89L16.98 12.89L16.98 12.89Q17.06 13.58 17.06 14.49L17.06 14.49L17.06 14.49Q17.06 14.77 16.96 14.98L16.96 14.98L16.96 14.98Q16.86 15.19 16.69 15.32L16.69 15.32L16.69 15.32Q16.52 15.46 16.30 15.52L16.30 15.52L16.30 15.52Q16.08 15.58 15.86 15.58L15.86 15.58L15.86 15.58Q15.63 15.58 15.42 15.52L15.42 15.52L15.42 15.52Q15.20 15.46 15.03 15.32L15.03 15.32L15.03 15.32Q14.86 15.19 14.76 14.98L14.76 14.98L14.76 14.98Q14.66 14.77 14.66 14.49L14.66 14.49L14.66 11.75L15.53 11.75L15.53 14.49L15.53 14.49Q15.53 14.73 15.63 14.83L15.63 14.83L15.63 14.83Q15.74 14.92 15.86 14.92L15.86 14.92L15.86 14.92Q15.98 14.92 16.08 14.83L16.08 14.83L16.08 14.83Q16.19 14.73 16.19 14.49L16.19 14.49L16.19 14.49Q16.19 13.60 16.10 12.94L16.10 12.94L16.10 12.94Q16.02 12.27 15.89 11.76L15.89 11.76L15.89 11.76Q15.76 11.25 15.60 10.87L15.60 10.87L15.60 10.87Q15.45 10.49 15.32 10.17L15.32 10.17L15.32 10.17Q15.19 9.85 15.07 9.45L15.07 9.45L15.07 9.45Q14.95 9.04 14.86 8.53L14.86 8.53L14.86 8.53Q14.77 8.02 14.71 7.38L14.71 7.38L14.71 7.38Q14.66 6.74 14.66 5.95L14.66 5.95L14.66 5.95Q14.66 5.67 14.76 5.46L14.76 5.46L14.76 5.46Q14.86 5.26 15.03 5.12L15.03 5.12L15.03 5.12Q15.20 4.99 15.42 4.93L15.42 4.93L15.42 4.93Q15.63 4.86 15.86 4.86L15.86 4.86L15.86 4.86Q16.08 4.86 16.30 4.93L16.30 4.93L16.30 4.93Q16.52 4.99 16.69 5.12L16.69 5.12L16.69 5.12Q16.86 5.26 16.96 5.46L16.96 5.46L16.96 5.46Q17.06 5.67 17.06 5.95L17.06 5.95ZM21.31 9.69L21.31 4.97L22.18 4.97L22.18 15.47L21.31 15.47L21.31 10.37L20.43 10.37L20.43 15.47L19.56 15.47L19.56 4.97L20.43 4.97L20.43 9.69L21.31 9.69ZM23.17 4.97L24.04 4.97L24.04 15.47L23.17 15.47L23.17 4.97ZM27.43 5.95L27.43 8.69L26.56 8.69L26.56 5.95L26.56 5.95Q26.56 5.71 26.46 5.61L26.46 5.61L26.46 5.61Q26.35 5.52 26.23 5.52L26.23 5.52L26.23 5.52Q26.11 5.52 26.00 5.61L26.00 5.61L26.00 5.61Q25.90 5.71 25.90 5.95L25.90 5.95L25.90 5.95Q25.90 6.69 25.97 7.30L25.97 7.30L25.97 7.30Q26.04 7.92 26.15 8.44L26.15 8.44L26.15 8.44Q26.26 8.96 26.39 9.38L26.39 9.38L26.39 9.38Q26.53 9.81 26.67 10.17L26.67 10.17L26.67 10.17Q26.78 10.45 26.91 10.81L26.91 10.81L26.91 10.81Q27.04 11.18 27.16 11.70L27.16 11.70L27.16 11.70Q27.28 12.21 27.35 12.89L27.35 12.89L27.35 12.89Q27.43 13.58 27.43 14.49L27.43 14.49L27.43 14.49Q27.43 14.77 27.33 14.98L27.33 14.98L27.33 14.98Q27.23 15.19 27.06 15.32L27.06 15.32L27.06 15.32Q26.89 15.46 26.67 15.52L26.67 15.52L26.67 15.52Q26.46 15.58 26.23 15.58L26.23 15.58L26.23 15.58Q26.00 15.58 25.79 15.52L25.79 15.52L25.79 15.52Q25.57 15.46 25.40 15.32L25.40 15.32L25.40 15.32Q25.23 15.19 25.13 14.98L25.13 14.98L25.13 14.98Q25.03 14.77 25.03 14.49L25.03 14.49L25.03 11.75L25.90 11.75L25.90 14.49L25.90 14.49Q25.90 14.73 26.00 14.83L26.00 14.83L26.00 14.83Q26.11 14.92 26.23 14.92L26.23 14.92L26.23 14.92Q26.35 14.92 26.46 14.83L26.46 14.83L26.46 14.83Q26.56 14.73 26.56 14.49L26.56 14.49L26.56 14.49Q26.56 13.60 26.47 12.94L26.47 12.94L26.47 12.94Q26.39 12.27 26.26 11.76L26.26 11.76L26.26 11.76Q26.13 11.25 25.97 10.87L25.97 10.87L25.97 10.87Q25.82 10.49 25.69 10.17L25.69 10.17L25.69 10.17Q25.56 9.85 25.44 9.45L25.44 9.45L25.44 9.45Q25.32 9.04 25.23 8.53L25.23 8.53L25.23 8.53Q25.14 8.02 25.08 7.38L25.08 7.38L25.08 7.38Q25.03 6.74 25.03 5.95L25.03 5.95L25.03 5.95Q25.03 5.67 25.13 5.46L25.13 5.46L25.13 5.46Q25.23 5.26 25.40 5.12L25.40 5.12L25.40 5.12Q25.57 4.99 25.79 4.93L25.79 4.93L25.79 4.93Q26.00 4.86 26.23 4.86L26.23 4.86L26.23 4.86Q26.46 4.86 26.67 4.93L26.67 4.93L26.67 4.93Q26.89 4.99 27.06 5.12L27.06 5.12L27.06 5.12Q27.23 5.26 27.33 5.46L27.33 5.46L27.33 5.46Q27.43 5.67 27.43 5.95L27.43 5.95ZM31.90 3.66L31.90 4.31L30.80 4.31L30.80 8.69L31.68 8.69L31.68 9.34L30.80 9.34L30.80 15.47L29.93 15.47L29.93 3.66L31.90 3.66ZM34.08 4.97L34.96 15.47L34.08 15.47L33.95 13.20L33.34 13.20L33.21 15.47L32.33 15.47L33.21 4.97L34.08 4.97ZM33.39 12.49L33.90 12.49L33.65 7.16L33.39 12.49ZM38.24 5.95L38.24 9.34L37.37 9.34L37.37 5.95L37.37 5.95Q37.37 5.72 37.25 5.62L37.25 5.62L37.25 5.62Q37.13 5.52 36.98 5.52L36.98 5.52L36.98 5.52Q36.89 5.52 36.81 5.55L36.81 5.55L36.81 5.55Q36.72 5.58 36.65 5.64L36.65 5.64L36.65 5.64Q36.58 5.70 36.53 5.78L36.53 5.78L36.53 5.78Q36.49 5.86 36.49 5.95L36.49 5.95L36.49 14.49L36.49 14.49Q36.49 14.58 36.53 14.66L36.53 14.66L36.53 14.66Q36.58 14.75 36.65 14.80L36.65 14.80L36.65 14.80Q36.72 14.86 36.81 14.89L36.81 14.89L36.81 14.89Q36.89 14.92 36.98 14.92L36.98 14.92L36.98 14.92Q37.13 14.92 37.25 14.82L37.25 14.82L37.25 14.82Q37.37 14.72 37.37 14.49L37.37 14.49L37.37 10.66L38.24 10.66L38.24 14.49L38.24 14.49Q38.24 14.76 38.12 14.97L38.12 14.97L38.12 14.97Q38.01 15.18 37.82 15.32L37.82 15.32L37.82 15.32Q37.64 15.46 37.40 15.53L37.40 15.53L37.40 15.53Q37.16 15.60 36.91 15.60L36.91 15.60L36.91 15.60Q36.67 15.60 36.44 15.53L36.44 15.53L36.44 15.53Q36.20 15.46 36.02 15.32L36.02 15.32L36.02 15.32Q35.83 15.18 35.72 14.97L35.72 14.97L35.72 14.97Q35.62 14.77 35.62 14.49L35.62 14.49L35.62 5.95L35.62 5.95Q35.62 5.68 35.73 5.47L35.73 5.47L35.73 5.47Q35.84 5.26 36.03 5.12L36.03 5.12L36.03 5.12Q36.21 4.98 36.45 4.91L36.45 4.91L36.45 4.91Q36.69 4.84 36.93 4.84L36.93 4.84L36.93 4.84Q37.18 4.84 37.41 4.91L37.41 4.91L37.41 4.91Q37.65 4.98 37.83 5.12L37.83 5.12L37.83 5.12Q38.01 5.26 38.13 5.47L38.13 5.47L38.13 5.47Q38.24 5.67 38.24 5.95L38.24 5.95ZM40.87 4.97L40.87 5.63L39.99 5.63L39.99 9.56L40.87 9.56L40.87 10.22L39.99 10.22L39.99 14.81L40.87 14.81L40.87 15.47L39.12 15.47L39.12 4.97L40.87 4.97Z"></path></g><defs data-v-fde0c5aa=""><linearGradient data-v-fde0c5aa="" gradientTransform="rotate(25)" id="1f5808cc-d7ab-4939-8d7a-58ab67144056" x1="0%" y1="0%" x2="100%" y2="0%"><stop data-v-fde0c5aa="" offset="0%" stop-color="#41E296" stop-opacity="1"></stop><stop data-v-fde0c5aa="" offset="100%" stop-color="#00C4EE" stop-opacity="1"></stop></linearGradient></defs><g data-v-fde0c5aa="" id="726a16e2-def6-498c-92de-c0e3907e3df4" stroke="none" fill="url(#1f5808cc-d7ab-4939-8d7a-58ab67144056)" transform="matrix(1.4175438596491228,0,0,1.4175438596491228,79.12280161004318,36.45614035087719)"><switch><g><path d="M89.409 42.483c-1.782-1.005-3.927-1.237-6.199-.711.108-2.454.14-4.491.14-5.929 0-8.772-3.467-17.093-9.759-23.439C67.253 6.021 58.875 2.5 50.005 2.5c-18.384 0-33.34 14.956-33.34 33.344 0 1.442.027 3.475.136 5.929-2.276-.526-4.425-.298-6.211.711-2.368 1.337-3.729 3.888-3.729 7.003 0 3.072.792 7.799 3.006 11.853 2.551 4.668 6.369 7.396 11.115 7.98C26.327 87.754 36.363 97.5 50.005 97.5c13.646 0 23.679-9.746 29.023-28.181 4.742-.588 8.553-3.316 11.104-7.98 2.214-4.054 3.007-8.78 3.007-11.853 0-3.115-1.361-5.666-3.73-7.003zm-77.404 7.003c0-.866.193-2.006 1.113-2.523.753-.426 2.164-.503 4.034.348.402 4.885 1.125 10.608 2.408 16.397-7.32-2.725-7.555-14.091-7.555-14.222zm38 42.87c-19.817 0-25.741-25.673-27.484-42.901 5.387-1.159 8.363-5.469 9.63-8.865 13.202-.336 20.839-4.9 24.966-8.773a25.681 25.681 0 0 0 2.682-2.945c1.739 6.168 5.129 14.891 11.057 18.786 2.068 1.364 4.282 2.06 6.609 2.095-1.783 17.225-7.754 42.603-27.46 42.603zm27.891-47.758c-1.488.042-2.883-.359-4.213-1.233-6.276-4.124-9.588-17.306-10.334-22.036a2.564 2.564 0 0 0-2.392-2.161 2.597 2.597 0 0 0-2.632 1.882c-.163.591-4.306 14.415-27.725 14.415-.12 0-.24 0-.363-.004h-.016a2.582 2.582 0 0 0-2.516 2.052c-.055.247-1.19 5.302-5.615 6.725a134.57 134.57 0 0 1-.282-8.395c0-15.547 12.648-28.2 28.195-28.2 15.285 0 28.196 12.916 28.196 28.2.002 1.775-.044 4.882-.303 8.755zm2.559 19.106c1.278-5.793 2.001-11.513 2.403-16.397 1.866-.847 3.27-.77 4.023-.344.916.518 1.108 1.657 1.108 2.523.001.131-.23 11.482-7.534 14.218z"></path></g></switch></g><!----></svg>